<?xml version="1.0" encoding="utf-8"?>
<!-- Generator: Adobe Illustrator 19.2.1, SVG Export Plug-In . SVG Version: 6.00 Build 0)  -->
<svg version="1.1" id="Layer_1" xmlns="http://www.w3.org/2000/svg" xmlns:xlink="http://www.w3.org/1999/xlink" x="0px" y="0px"
	 viewBox="0 0 70.7 70.7" style="enable-background:new 0 0 70.7 70.7;" xml:space="preserve">
<g id="PQirj9_1_">
	<g>
		<path d="M35.4,30.5c0.1-0.1,0.2-0.1,0.3-0.2c0.2-0.2,0.3-0.3,0.5-0.5c9.5-9.5,19-19,28.5-28.5c0.2-0.2,0.4-0.4,0.6-0.6
			c1.2-1,2.8-1,4,0c0.3,0.2,0.5,0.5,0.7,0.8c1,1.1,1,2.8,0,3.9c-0.2,0.2-0.4,0.4-0.6,0.6c-9.5,9.5-19.1,19.1-28.6,28.6
			c-0.2,0.2-0.4,0.4-0.6,0.7c0.1,0.1,0.2,0.2,0.2,0.3c0.2,0.2,0.3,0.3,0.5,0.5c9.4,9.4,18.9,18.9,28.3,28.3c0.2,0.2,0.4,0.4,0.7,0.7
			c1.1,1.2,1.1,2.9,0,4c-0.2,0.3-0.5,0.5-0.8,0.8c-1.1,1-2.9,1-4,0c-0.2-0.2-0.4-0.4-0.7-0.7C55,59.8,45.6,50.3,36.1,40.9
			c-0.2-0.2-0.4-0.5-0.8-0.7c-0.1,0.1-0.2,0.2-0.3,0.2c-0.2,0.2-0.4,0.4-0.6,0.6C25,50.4,15.6,59.8,6.2,69.3
			c-0.2,0.2-0.4,0.4-0.6,0.6c-1.1,1.1-2.9,1.1-4,0c-0.3-0.2-0.5-0.5-0.7-0.8c-1-1.1-1-2.8,0-3.9c0.2-0.2,0.4-0.4,0.6-0.6
			C10.9,55.1,20.4,45.5,30,36c0.2-0.2,0.4-0.3,0.5-0.6c-0.1-0.1-0.1-0.2-0.2-0.3c-0.2-0.2-0.4-0.4-0.6-0.6
			C20.3,25.1,10.9,15.6,1.4,6.2C1.2,6,1,5.8,0.8,5.6c-1.1-1.2-1.1-2.9,0-4C1,1.3,1.3,1,1.5,0.8c1.2-1.1,2.8-1.1,4,0
			C5.8,1,6,1.2,6.2,1.4c9.5,9.5,19,19,28.5,28.5C34.9,30.1,35.1,30.4,35.4,30.5z"/>
	</g>
</g>
</svg>
